<svg width="1227" height="154" viewBox="0 0 1227 154" fill="none" xmlns="http://www.w3.org/2000/svg">
<path d="M822.5 120.5C822.5 120.5 331.5 70 314 70C296.5 70 286.3 80 285.5 98C284.7 116 298 124.5 313 124.5C328 124.5 358.6 93.5 381 95.5C403.4 97.5 409.359 107.169 409.5 122.5C409.715 146 389 150.5 381 150L144.5 129C128.833 129.333 98.5 123.7 102.5 98.5C106.5 73.3 130.5 75 133.5 75C151 75 186.5 122.5 211 122.5C224 122.5 238 111.5 238 98.5C238 91 233.5 68 214.5 68C195.5 68 26 58.5 26 58.5C13.5 57.5 2.99999 45.5 3 29C3.00001 12.5562 15 3 29.5 3C44 3 827 72 827 72H1197.5C1207.5 72 1224 77.5 1224 98C1224 118.5 1206.83 123.167 1197.5 123L822.5 120.5Z" stroke="#274381" stroke-width="6"/>
</svg>
